<svg width="487" height="328" viewBox="0 0 487 328" fill="none" xmlns="http://www.w3.org/2000/svg">
<circle cx="229.115" cy="162.726" r="160.226" transform="rotate(90 229.115 162.726)" fill="white" stroke="black" stroke-width="5"/>
<path d="M227.488 2.5C302.132 2.5 363.305 73.839 363.305 162.726C363.305 251.612 302.132 322.951 227.488 322.951C152.844 322.951 91.6714 251.612 91.6714 162.726C91.6714 73.8392 152.844 2.50025 227.488 2.5Z" fill="white" stroke="black" stroke-width="5"/>
<path d="M227.488 2.5C255.57 2.5 281.328 20.0137 300.184 49.0234C319.025 78.0094 330.759 118.202 330.759 162.726C330.759 207.249 319.025 247.442 300.184 276.428C281.328 305.437 255.57 322.951 227.488 322.951C199.406 322.951 173.649 305.437 154.793 276.428C135.952 247.442 124.216 207.249 124.216 162.726C124.216 118.202 135.952 78.0094 154.793 49.0234C173.649 20.014 199.406 2.50007 227.488 2.5Z" fill="white" stroke="black" stroke-width="5"/>
<path d="M229.115 2.5C237.193 2.5 245.143 6.58292 252.635 14.5059C260.133 22.4341 267 34.0406 272.82 48.5898C284.454 77.6749 291.706 118.027 291.706 162.726C291.706 207.424 284.454 247.776 272.82 276.861C267 291.411 260.133 303.017 252.635 310.945C245.143 318.868 237.193 322.951 229.115 322.951C221.037 322.951 213.088 318.868 205.595 310.945C198.098 303.017 191.231 291.411 185.411 276.861C173.777 247.776 166.525 207.424 166.525 162.726C166.525 118.027 173.777 77.6749 185.411 48.5898C191.231 34.0406 198.098 22.4341 205.595 14.5059C213.088 6.58305 221.037 2.50014 229.115 2.5Z" fill="white" stroke="black" stroke-width="5"/>
<path d="M229.116 2.5C230.126 2.50015 231.473 3.06114 233.141 4.95703C234.798 6.84105 236.514 9.76547 238.216 13.7666C241.613 21.749 244.73 33.4533 247.367 48.1045C252.634 77.366 255.906 117.892 255.906 162.726C255.906 207.559 252.634 248.086 247.367 277.348C244.73 291.999 241.613 303.702 238.216 311.685C236.514 315.686 234.798 318.61 233.141 320.494C231.473 322.39 230.126 322.951 229.116 322.951C228.105 322.951 226.757 322.39 225.089 320.494C223.432 318.61 221.717 315.686 220.014 311.685C216.617 303.702 213.501 291.999 210.864 277.348C205.597 248.086 202.325 207.559 202.325 162.726C202.325 117.892 205.597 77.366 210.864 48.1045C213.501 33.4533 216.617 21.749 220.014 13.7666C221.717 9.76544 223.432 6.84106 225.089 4.95703C226.757 3.06082 228.106 2.5 229.116 2.5Z" fill="white" stroke="black" stroke-width="5"/>
<path d="M389.341 161.098C389.341 235.742 318.002 296.915 229.115 296.915C140.229 296.915 68.8899 235.742 68.8899 161.098C68.8901 86.4542 140.229 25.2816 229.115 25.2816C318.002 25.2816 389.341 86.4542 389.341 161.098Z" stroke="black" stroke-width="5"/>
<path d="M389.341 161.098C389.341 189.18 371.827 214.938 342.818 233.794C313.832 252.635 273.639 264.37 229.115 264.37C184.592 264.37 144.399 252.635 115.413 233.794C86.4036 214.938 68.8899 189.18 68.8899 161.098C68.89 133.016 86.4038 107.259 115.413 88.4029C144.399 69.562 184.592 57.8267 229.115 57.8267C273.639 57.8267 313.832 69.562 342.818 88.4029C371.827 107.259 389.341 133.016 389.341 161.098Z" stroke="black" stroke-width="5"/>
<path d="M389.341 162.725C389.341 170.803 385.258 178.753 377.335 186.246C369.407 193.743 357.8 200.611 343.251 206.43C314.166 218.064 273.814 225.316 229.115 225.316C184.417 225.316 144.065 218.064 114.98 206.43C100.431 200.611 88.824 193.743 80.8958 186.246C72.9728 178.753 68.8899 170.803 68.8899 162.725C68.89 154.647 72.9729 146.698 80.8958 139.206C88.824 131.708 100.43 124.841 114.98 119.021C144.065 107.387 184.417 100.135 229.115 100.135C273.814 100.135 314.166 107.387 343.251 119.021C357.801 124.841 369.407 131.708 377.335 139.206C385.258 146.698 389.341 154.647 389.341 162.725Z" stroke="black" stroke-width="5"/>
<path d="M389.341 162.726C389.341 163.736 388.78 165.084 386.884 166.751C385 168.409 382.076 170.124 378.074 171.827C370.092 175.224 358.388 178.34 343.737 180.977C314.475 186.244 273.949 189.516 229.115 189.516C184.282 189.516 143.755 186.244 114.493 180.977C99.8424 178.34 88.1388 175.224 80.1565 171.827C76.1553 170.124 73.231 168.409 71.3469 166.751C69.451 165.084 68.89 163.736 68.8899 162.726C68.8899 161.716 69.4507 160.368 71.3469 158.7C73.231 157.042 76.1553 155.327 80.1565 153.624C88.1388 150.227 99.8425 147.111 114.493 144.474C143.755 139.207 184.282 135.935 229.115 135.935C273.949 135.935 314.475 139.207 343.737 144.474C358.388 147.111 370.092 150.227 378.074 153.624C382.076 155.327 385 157.042 386.884 158.7C388.78 160.368 389.341 161.716 389.341 162.726Z" stroke="black" stroke-width="5"/>
<path d="M471.829 72.1448C473.651 73.5898 474.681 75.4286 474.928 77.6706C475.176 79.9306 474.631 82.638 473.219 85.7989C472.537 87.3242 471.221 89.0654 469.342 90.9973C467.469 92.924 465.06 95.0154 462.224 97.2447C456.553 101.703 449.205 106.686 441.082 111.974C425.059 122.404 406.022 134.015 391.045 145.035L390.459 143.02C404.118 132.939 418.758 123.981 430.704 116.055C436.71 112.069 442.037 108.343 446.193 104.873C450.336 101.415 453.375 98.1654 454.734 95.123C456.065 92.1446 456.626 89.4933 456.374 87.1996C456.12 84.888 455.044 82.9781 453.185 81.504C451.339 80.0408 448.741 79.0206 445.448 78.4221C442.15 77.823 438.123 77.6406 433.391 77.8788C414.479 78.8309 384.889 86.469 348.48 99.767C312.06 113.068 269.871 130.934 228.452 151.995C187.032 173.056 148.294 196.339 116.179 217.886C85.0564 238.767 62.0276 258.712 48.7372 271.895L47.4809 273.15C43.7706 276.884 40.4514 280.293 37.7615 283.344C35.0761 286.389 32.9938 289.105 31.7773 291.454C30.5694 293.787 30.1483 295.889 31.0276 297.609C31.9013 299.318 33.9588 300.446 37.1739 301.102C40.442 301.77 44.951 301.593 50.3505 300.706C55.7605 299.818 62.1061 298.211 69.0665 295.986C82.8737 291.572 99.1325 284.715 115.369 276.18L117.158 278.902C108.422 282.744 99.6696 286.852 91.2353 290.794C82.624 294.818 74.3455 298.668 66.7424 301.89C59.1371 305.113 52.2246 307.699 46.3446 309.203C40.4458 310.712 35.6682 311.108 32.2873 310.039L32.2623 310.031L32.2365 310.025C28.8073 309.325 26.2546 308.19 24.5319 306.677C22.8228 305.176 21.905 303.28 21.771 300.98C21.6361 298.662 22.2964 295.907 23.8061 292.72C25.3144 289.535 27.6564 285.948 30.8457 281.977C43.6141 266.081 69.1923 244.984 104.309 221.424C139.441 197.853 180.373 169.772 225.64 146.755C270.908 123.737 318.43 106.841 358.269 92.2906C398.092 77.7461 430.346 69.4364 450.874 68.403C456.002 68.1449 460.322 68.3445 463.826 68.9812C467.334 69.6186 469.993 70.6888 471.829 72.1448Z" fill="black" stroke="black"/>
</svg>
